# AST/ASF file generated using VICON BodyLanguage
# -----------------------------------------------
:version 1.10
:name VICON
:units
  mass 1.0
  length 0.45
  angle deg
:documentation
   .ast/.asf automatically generated from VICON data using
   VICON BodyBuilder and BodyLanguage model FoxedUp or BRILLIANT.MOD
:root
   order TX TY TZ RX RY RZ
   axis XYZ
   position 0 0 0  
   orientation 0 0 0 
:bonedata
  begin
     id 1 
     name lhipjoint
     direction 0.610259 -0.730986 0.305356 
     length 2.50941 
     axis 0 0 0  XYZ
  end
  begin
     id 2 
     name lfemur
     direction 0.34202 -0.939693 0  
     length 7.48822  
     axis 0 0 20  XYZ
    dof rx ry rz
    limits (-160.0 20.0)
           (-70.0 70.0)
           (-60.0 70.0)
  end
  begin
     id 3 
     name ltibia
     direction 0.34202 -0.939693 0   
     length 7.60141   
     axis 0 0 20   XYZ
    dof rx
    limits (-10.0 170.0)
  end
  begin
     id 4 
     name lfoot
     direction 0.0673488 -0.185039 0.980421   
     length 2.04049   
     axis -90 7.62852e-016 20   XYZ
    dof rx rz
    limits (-45.0 90.0)
           (-70.0 20.0)
  end
  begin
     id 5 
     name ltoes
     direction 1.5356e-011 -4.21729e-011 1   
     length 1.02897   
     axis -90 7.62852e-016 20   XYZ
    dof rx
    limits (-90.0 20.0)
  end
  begin
     id 6 
     name rhipjoint
     direction -0.57612 -0.754205 0.315056   
     length 2.43216  
     axis 0 0 0  XYZ 
  end
  begin
     id 7 
     name rfemur
     direction -0.34202 -0.939693 0   
     length 7.42799   
     axis 0 0 -20   XYZ
    dof rx ry rz
    limits (-160.0 20.0)
           (-70.0 70.0)
           (-70.0 60.0)
  end
  begin
     id 8 
     name rtibia
     direction -0.34202 -0.939693 0   
     length 7.69484   
     axis 0 0 -20   XYZ
    dof rx
    limits (-10.0 170.0)
 end
 begin
     id 9 
     name rfoot
     direction -0.111837 -0.30727 0.945028   
     length 2.15769  
     axis -90 -7.62852e-016 -20   XYZ
    dof rx rz
    limits (-45.0 90.0)
           (-20.0 70.0)
  end
  begin
     id 10 
     name rtoes
     direction -1.53539e-011 -4.21878e-011 1   
     length 1.07391   
     axis -90 -7.62852e-016 -20   XYZ
    dof rx
    limits (-90.0 20.0)
  end
  begin
     id 11 
     name lowerback
     direction 0.00552624 0.990109 -0.140195   
     length 2.12403   
     axis 0 0 0   XYZ
    dof rx ry rz
    limits (-20.0 45.0)
           (-30.0 30.0)
           (-30.0 30.0)
  end
  begin
     id 12 
     name upperback
     direction 0.00361898 0.999976 -0.00584723   
     length 2.13232   
     axis 0 0 0   XYZ
    dof rx ry rz
    limits (-20.0 45.0)
           (-30.0 30.0)
           (-30.0 30.0)
  end
  begin
     id 13 
     name thorax
     direction -0.000331275 0.998253 0.0590847   
     length 2.17688   
     axis 0 0 0   XYZ
    dof rx ry rz
    limits (-20.0 45.0)
           (-30.0 30.0)
           (-30.0 30.0)
  end
  begin
     id 14 
     name lowerneck
     direction -0.0561561 0.979832 0.19177   
     length 1.64159   
     axis 0 0 0   XYZ
    dof rx ry rz
    limits (-20.0 45.0)
           (-30.0 30.0)
           (-30.0 30.0)
  end
  begin
     id 15 
     name upperneck
     direction 0.0827153 0.979385 -0.184293   
     length 1.68939   
     axis 0 0 0   XYZ
    dof rx ry rz
    limits (-20.0 45.0)
           (-30.0 30.0)
           (-30.0 30.0)
  end
  begin
     id 16
     name head
     direction 0.0278583 0.995936 -0.0856488  
     length 1.70207  
     axis 0 0 0   XYZ
    dof rx ry rz
    limits (-20.0 45.0)
           (-30.0 30.0)
           (-30.0 30.0)
  end
  begin
     id 17 
     name lclavicle
     direction 0.950993 0.301131 -0.0702275  
     length 3.41652  
     axis 0 0 0   XYZ
    dof ry rz
    limits (-20.0 10.0)
           (0.0 20.0)
  end
  begin
     id 18 
     name lhumerus
     direction 1 -4.48981e-011 -3.9662e-029   
     length 5.32955   
     axis 180 -30 -90   XYZ
    dof rx ry rz
    limits (-60.0 90.0)
           (-90.0 90.0)
           (-90.0 90.0)
  end
  begin
     id 19
     name lradius
     direction 1 -4.48925e-011 -9.0549e-027   
     length 3.69232   
     axis 180 -30 -90   XYZ
    dof rx
    limits (-10.0 170.0)
  end
  begin
     id 20
     name lwrist
     direction 1 -4.49007e-011 -1.49005e-026   
     length 1.84616   
     axis 9.0955e-015 90 90   XYZ
    dof ry
    limits (-180.0 0.0)
 end
  begin
     id 21 
     name lhand
     direction 1 -4.49016e-011 -2.98023e-026   
     length 0.536598   
     axis 1.90115e-014 90 90   XYZ
    dof rx rz
    limits (-90.0 90.0)
           (-45.0 45.0)
  end
  begin
     id 22 
     name lfingers
     direction 1 -4.48924e-011 -5.9578e-026   
     length 0.432619   
     axis 3.80223e-014 90 90   XYZ
    dof rx
    limits (0.0 90.0)
  end
  begin
     id 23
     name lthumb
     direction 0.707107 -6.34947e-011 0.707107   
     length 0.621157   
     axis -90 45 -3.84942e-014   XYZ
    dof rx rz
    limits (-45.0 45.0)
           (-45.0 45.0)
  end
  begin
     id 24 
     name rclavicle
     direction -0.955495 0.276497 -0.102848   
     length 3.36357  
     axis 0 0 0   XYZ 
    dof ry rz
    limits (-10.0 20.0)
           (-20.0 0.0)
  end
  begin
     id 25 
     name rhumerus
     direction -1 -4.48961e-011 3.30983e-027  
     length 5.23431   
     axis 180 30 90   XYZ
    dof rx ry rz
    limits (-90.0 60.0)
           (-90.0 90.0)
           (-90.0 90.0)
  end
  begin
     id 26 
     name rradius
     direction -1 -4.48965e-011 -6.63263e-027   
     length 3.55301   
     axis 180 30 90   XYZ
    dof rx
    limits (-10.0 170.0)
  end
  begin
     id 27 
     name rwrist
     direction -1 -4.48942e-011 -1.48958e-026   
     length 1.77651   
     axis 9.0955e-015 -90 -90   XYZ
    dof ry
    limits (-180.0 0.0)
  end
  begin
     id 28
     name rhand
     direction -1 -4.48977e-011 -2.97966e-026   
     length 0.772522   
     axis 1.90115e-014 -90 -90   XYZ
    dof rx rz
    limits (-90.0 90.0)
           (-45.0 45.0)
  end
  begin
     id 29
     name rfingers
     direction -1 -4.49135e-011 -5.96389e-026   
     length 0.622827   
     axis 3.80223e-014 -90 -90   XYZ
    dof rx
    limits (0.0 90.0)
  end
  begin
     id 30
     name rthumb
     direction -0.707107 -6.34969e-011 0.707107   
     length 0.894259   
     axis -90 -45 3.84942e-014   XYZ
    dof rx rz
    limits (-45.0 45.0)
           (-45.0 45.0)
  end
:hierarchy
  begin
    root lhipjoint rhipjoint lowerback
    lhipjoint lfemur
    lfemur ltibia
    ltibia lfoot
    lfoot ltoes
    rhipjoint rfemur
    rfemur rtibia
    rtibia rfoot
    rfoot rtoes
    lowerback upperback
    upperback thorax
    thorax lowerneck lclavicle rclavicle
    lowerneck upperneck
    upperneck head
    lclavicle lhumerus
    lhumerus lradius
    lradius lwrist
    lwrist lhand lthumb
    lhand lfingers
    rclavicle rhumerus
    rhumerus rradius
    rradius rwrist
    rwrist rhand rthumb
    rhand rfingers
  end

#!OML:ASF F:\VICON\USERDATA\INSTALL\rory3\rory3.ASF
:FULLY-SPECIFIED
:DEGREES
1
root 18.4644 17.8328 -8.10309 -1.57474 -44.1444 4.48413
lowerback 6.91046 0.267615 -4.04113
upperback -1.13028 -0.00496594 -0.160777
thorax -5.05886 0.111678 2.10454
lowerneck -19.9788 -4.50473 -10.5446
upperneck 27.795 -5.5056 7.73048
head 13.1881 -2.59072 3.85305
rclavicle -8.12408e-014 1.98785e-015
rhumerus -34.2482 -8.58814 -84.4264
rradius 28.4396
rwrist 7.8808
rhand -15.4111 7.97828
rfingers 7.12502
rthumb 10.7682 -21.7257
lclavicle -8.12408e-014 1.98785e-015
lhumerus -32.6069 -2.55918 89.9195
lradius 27.524
lwrist -10.9646
lhand -14.5233 24.8184
lfingers 7.12502
lthumb 11.6245 54.476
rfemur -10.28 1.59471 21.602
rtibia 34.7441
rfoot -20.1435 -5.4565
rtoes 3.4637
lfemur -6.08164 -1.9075 -25.5681
ltibia 22.9778
lfoot -15.1317 -3.69138
ltoes -5.15441
2
root 18.4538 17.8303 -8.10511 -1.58789 -44.1146 4.47764
lowerback 6.85446 0.296923 -3.94123
upperback -1.0779 0.0446737 -0.200327
thorax -4.97507 0.13034 2.00169
lowerneck -19.9558 -4.55324 -10.3778
upperneck 27.9325 -5.54647 7.41663
head 13.2289 -2.63471 3.69505
rclavicle 2.69974e-014 8.94531e-015
rhumerus -34.2328 -8.64056 -84.4619
rradius 28.432
rwrist 7.76733
rhand -15.1837 8.09495
rfingers 7.12502
rthumb 10.9875 -21.5975
lclavicle 2.69974e-014 8.94531e-015
lhumerus -32.438 -2.63923 89.8614
lradius 27.2264
lwrist -10.8924
lhand -14.3375 24.5661
lfingers 7.12502
lthumb 11.8037 54.2135
rfemur -10.2446 1.35617 21.5941
rtibia 34.7581
rfoot -20.2618 -5.20634
rtoes 4.11489
lfemur -6.10856 -1.68885 -25.5179
ltibia 23.0887
lfoot -15.3557 -3.87023
ltoes -5.81594
3
root 18.4422 17.8247 -8.10729 -1.68012 -44.0723 4.60371
lowerback 6.78105 0.310707 -3.9389
upperback -1.01466 0.0640237 -0.281416
thorax -4.86837 0.135615 1.91396
lowerneck -19.9115 -4.5602 -10.3188
upperneck 28.0072 -5.57467 7.37328
head 13.2503 -2.64877 3.66479
rclavicle -4.436e-014 9.14409e-015
rhumerus -34.2951 -8.42046 -84.6439
rradius 28.6173
rwrist 7.45215
rhand -15.1018 8.13633
rfingers 7.12502
rthumb 11.0665 -21.5519
lclavicle -4.436e-014 9.14409e-015
lhumerus -32.4735 -2.43274 89.6396
lradius 27.3583
lwrist -11.1288
lhand -14.1953 24.2269
lfingers 7.12502
lthumb 11.9408 53.8664
rfemur -10.2022 1.17919 21.4975
rtibia 34.7507
rfoot -20.3481 -5.1255
rtoes 3.82152
lfemur -6.16405 -1.63784 -25.5902
ltibia 23.2502
lfoot -15.5967 -3.8904
ltoes -6.29026
4
root 18.4303 17.8184 -8.1088 -1.7293 -44.0733 4.63534
lowerback 6.78293 0.300101 -3.91809
upperback -0.980047 0.0514061 -0.300591
thorax -4.83232 0.12733 1.88375
lowerneck -19.879 -4.50376 -10.3061
upperneck 28.1494 -5.50888 7.36283
head 13.2941 -2.62352 3.67437
rclavicle 0 -1.15295e-014
rhumerus -34.3836 -8.13716 -84.7734
rradius 28.7624
rwrist 7.23107
rhand -15.1873 8.16522
rfingers 7.12502
rthumb 10.9841 -21.5274
lclavicle 0 -1.15295e-014
lhumerus -32.5898 -2.05544 89.4315
lradius 27.5183
lwrist -11.357
lhand -15.305 24.1571
lfingers 7.12502
lthumb 10.8706 53.8557
rfemur -10.1021 1.18611 21.4985
rtibia 34.7024
rfoot -20.4137 -5.12506
rtoes 3.3089
lfemur -6.19419 -1.95975 -25.6203
ltibia 23.4609
lfoot -15.581 -3.53722
ltoes -6.72576
5
root 18.4191 17.8141 -8.11022 -1.56749 -44.0121 4.39686
lowerback 6.78763 0.299735 -3.66205
upperback -0.974402 0.0731217 -0.293186
thorax -4.82931 0.131142 1.74528
lowerneck -19.9335 -4.51276 -10.1789
upperneck 28.4243 -5.52657 7.19185
head 13.4124 -2.64376 3.58764
rclavicle 7.97623e-015 -1.98785e-015
rhumerus -34.4725 -8.21358 -84.7825
rradius 28.8408
rwrist 7.15979
rhand -15.1359 8.03556
rfingers 7.12502
rthumb 11.0336 -21.6544
lclavicle 7.97623e-015 -1.98785e-015
lhumerus -32.6463 -1.86909 89.2396
lradius 27.5498
lwrist -11.4582
lhand -16.2201 23.9334
lfingers 7.12502
lthumb 9.9878 53.6765
rfemur -10.0185 1.13363 21.7122
rtibia 34.6407
rfoot -20.4548 -5.08555
rtoes 2.99291
lfemur -6.25713 -2.46045 -25.4399
ltibia 23.6865
lfoot -15.5437 -3.10914
ltoes -7.25291
6
root 18.4083 17.8086 -8.11482 -1.46802 -43.9308 4.19801
lowerback 6.82881 0.319542 -3.45516
upperback -0.93912 0.115979 -0.297793
thorax -4.81718 0.146032 1.61963
lowerneck -19.9231 -4.53921 -10.1406
upperneck 28.6179 -5.58717 7.1651
head 13.4961 -2.67333 3.56458
rclavicle 4.44781e-014 -1.19271e-014
rhumerus -34.458 -8.35626 -84.8118
rradius 28.8027
rwrist 7.08173
rhand -14.9749 8.40793
rfingers 7.12502
rthumb 11.1889 -21.2737
lclavicle 4.44781e-014 -1.19271e-014
lhumerus -32.6428 -2.01978 89.1135
lradius 27.6329
lwrist -11.2574
lhand -16.4767 23.4368
lfingers 7.12502
lthumb 9.74025 53.1916
rfemur -9.90546 1.10793 21.9053
rtibia 34.5738
rfoot -20.4711 -5.0327
rtoes 2.92648
lfemur -6.31856 -2.63968 -25.2479
ltibia 23.9255
lfoot -15.7478 -2.94761
ltoes -7.90813
